<svg width="107" height="119" viewBox="0 0 107 119" fill="none" xmlns="http://www.w3.org/2000/svg">
<path d="M97.3891 4.53208L53.5477 63.2977L9.53757 4.52989L9.49613 4.47455L9.44977 4.42327C7.4706 2.23336 4.75648 1.93547 2.9514 3.40248C2.0877 4.10442 1.54066 5.15633 1.50217 6.35101C1.46408 7.53351 1.92357 8.73522 2.83448 9.81651L49.1065 71.1356L49.1037 112.723C49.1037 114.162 49.5572 115.393 50.4342 116.265C51.3012 117.128 52.4411 117.5 53.55 117.5C54.6028 117.5 55.7191 117.11 56.5806 116.286C57.4657 115.439 57.9963 114.215 57.9963 112.723V71.1341L104.083 9.8313C105.031 8.76135 105.525 7.56178 105.499 6.36697C105.473 5.15103 104.907 4.09198 104.03 3.39328C102.217 1.94909 99.4684 2.22154 97.4786 4.42327L97.4313 4.47557L97.3891 4.53208Z" fill="black" stroke="black" stroke-width="3"/>
</svg>