<svg width="118" height="120" viewBox="0 0 118 120" fill="none" xmlns="http://www.w3.org/2000/svg">
<path fill-rule="evenodd" clip-rule="evenodd" d="M67.9037 0.681351C97.2322 5.22287 117.225 30.1099 117.968 58.1691C119.076 93.1337 91.2887 120 58.9954 120C26.8675 120 -0.903186 93.1238 0.0224986 58.1762L0.0227564 58.1665L0.0230771 58.1568C0.942112 30.292 18.6572 5.2506 47.974 0.681797L47.9972 0.678183L48.0204 0.674933C54.455 -0.224978 61.4256 -0.224978 67.8602 0.674933L67.882 0.677982L67.9037 0.681351ZM49.7672 12.1242C55.0995 11.3088 60.7782 11.3088 66.1105 12.1242L66.1142 12.1248C89.551 15.6783 105.496 35.7163 106.163 58.5159L106.163 58.5172C106.995 86.4889 84.7325 108.66 58.9954 108.66C33.4425 108.66 11.1731 86.4959 12.0047 58.5172L12.0047 58.5155C12.6756 35.5127 26.6894 15.6487 49.7672 12.1242Z" fill="black"/>
</svg>