<svg width="106" height="119" viewBox="0 0 106 119" fill="none" xmlns="http://www.w3.org/2000/svg">
<path fill-rule="evenodd" clip-rule="evenodd" d="M94.2821 66.2793C94.2821 80.1209 89.0781 90.2861 81.4335 97.024C73.7317 103.812 63.3738 107.273 52.9142 107.273C42.4545 107.273 32.0965 103.812 24.3948 97.024C16.7502 90.2861 11.5462 80.1209 11.5462 66.2793V5.88553C11.5462 4.14806 10.8884 2.6145 9.71443 1.5308C8.58967 0.492566 7.16142 0.0217154 5.82 0.000736226C4.48213 -0.0201876 3.04285 0.403875 1.89629 1.40245C0.692532 2.45084 0 3.97348 0 5.71202V66.2793C0 83.6728 6.58965 96.9355 16.6381 105.818C26.6302 114.65 39.8653 119 53 119C66.1347 119 79.3698 114.65 89.3618 105.818C99.4104 96.9355 106 83.6728 106 66.2793V5.71202C106 3.94038 105.271 2.41041 104.043 1.37302C102.878 0.389592 101.43 -0.0195358 100.096 0.00071453C98.7572 0.0210168 97.3185 0.47583 96.1744 1.50017C94.9743 2.57468 94.2821 4.1168 94.2821 5.88553V66.2793Z" fill="black"/>
</svg>