<svg width="101" height="116" viewBox="0 0 101 116" fill="none" xmlns="http://www.w3.org/2000/svg">
<path fill-rule="evenodd" clip-rule="evenodd" d="M92.7402 60.7956C89.4621 57.5561 85.4153 55.1219 80.9216 53.3829C83.5227 51.733 85.7518 49.7229 87.5529 47.3714C90.9449 42.9429 92.6796 37.4838 92.6796 31.3648C92.6796 18.2167 84.9777 10.2442 75.7169 5.72981C66.5927 1.28193 55.6853 0 48.0747 0H6.12016C2.73621 0 0 2.72038 0 6.11328V109.887C0 113.28 2.73639 116 6.12016 116H53.9683C64.8561 116 76.4692 114.292 85.4653 109.164C94.6791 103.911 101 95.1257 101 81.6952C101 72.8927 97.9339 65.928 92.7402 60.7956ZM50.3281 49.4654H11.8965V11.1886H48.0524C53.7075 11.274 62.1174 12.3656 69 15.5583C75.8292 18.7263 80.6097 23.6419 80.6097 31.3648C80.6097 34.886 79.7723 37.6467 78.3836 39.8458C76.987 42.0574 74.9284 43.8651 72.2466 45.303C66.8014 48.2225 59.0668 49.4654 50.3281 49.4654ZM59.5152 61.0001C68.2303 61.0001 75.6767 62.6429 80.8489 66.0065C85.8435 69.2546 88.933 74.2291 88.933 81.6952C88.933 86.5318 87.8157 90.26 86.0111 93.1692C84.2013 96.0869 81.5938 98.3518 78.3581 100.087C71.7962 103.606 62.9013 104.811 53.9683 104.811H11.8965V61.0001H59.5152Z" fill="black"/>
</svg>